<svg width="24" height="24" viewBox="0 0 24 24" fill="none" xmlns="http://www.w3.org/2000/svg">
<path d="M16.5 3V3.5H17H19C19.8269 3.5 20.5 4.17314 20.5 5V20C20.5 20.8269 19.8269 21.5 19 21.5H5C4.17314 21.5 3.5 20.8269 3.5 20V5C3.5 4.17314 4.17314 3.5 5 3.5H7H7.5V3C7.5 2.86739 7.55268 2.74021 7.64645 2.64645C7.74021 2.55268 7.86739 2.5 8 2.5H16C16.1326 2.5 16.2598 2.55268 16.3536 2.64645C16.4473 2.74021 16.5 2.86739 16.5 3ZM5 4.5H4.5V5V20V20.5H5H19H19.5V20V5V4.5H19H17H16.5V5V6.5H7.5V5V4.5H7H5Z" fill="#000F22" stroke="#000F22"/>
<line x1="7" y1="10.5" x2="17" y2="10.5" stroke="#000F22"/>
<line x1="7" y1="13.5" x2="17" y2="13.5" stroke="#000F22"/>
<line x1="7" y1="16.5" x2="17" y2="16.5" stroke="#000F22"/>
</svg>
